<svg width="21" height="20" viewBox="0 0 21 20" fill="none" xmlns="http://www.w3.org/2000/svg">
<g opacity="0.2" clip-path="url(#clip0_4_3998)">
<g clip-path="url(#clip1_4_3998)">
<path fill-rule="evenodd" clip-rule="evenodd" d="M11.7083 2.27314L19.7859 9.39878C20.0137 9.59973 20.0354 9.94729 19.8345 10.1751C19.7301 10.2934 19.5799 10.3612 19.4221 10.3612H16.4786V16.9C16.4786 17.5075 15.9861 18 15.3786 18H12.6297L12.63 14.1931C12.63 13.3301 11.9673 12.6219 11.123 12.5498L10.9807 12.5437C10.0697 12.5437 9.33128 13.2822 9.33128 14.1931L9.33066 18H6.58273C5.97521 18 5.48273 17.5075 5.48273 16.9V10.3612H2.53926C2.2355 10.3612 1.98926 10.115 1.98926 9.81123C1.98926 9.65341 2.05706 9.50319 2.17541 9.39878L10.253 2.27314C10.6688 1.90635 11.2926 1.90635 11.7083 2.27314Z" fill="black"/>
</g>
</g>
<defs>
<clipPath id="clip0_4_3998">
<rect width="20" height="20" fill="white" transform="translate(0.980469)"/>
</clipPath>
<clipPath id="clip1_4_3998">
<rect width="20" height="20" fill="white" transform="translate(0.980469)"/>
</clipPath>
</defs>
</svg>
